<svg xmlns="http://www.w3.org/2000/svg" viewBox="-278 -178 1356 1356"><path fill="#a59060" fill-rule="evenodd" d="M394 988C371 980 339 962 318 944C278 909 245 862 228 814C211 768 207 717 217 666C228 604 249 547 277 500C310 443 357 412 410 412C460 412 504 440 528 490C549 531 556 585 545 624C534 665 505 692 473 692C445 692 423 675 416 646C414 635 415 620 420 606C421 604 423 599 425 594C434 572 425 554 405 554C395 554 384 561 377 572C365 589 353 621 346 656C342 675 341 682 342 708C342 732 342 734 344 746C360 818 416 881 484 904C513 913 532 916 560 916C581 916 591 915 608 909C622 905 630 906 634 913C638 921 638 928 632 934C628 938 618 942 602 946C571 953 530 951 496 943C461 934 433 920 405 899C395 892 370 867 361 856C332 819 314 778 308 735C306 713 307 676 313 650C317 630 322 612 328 596C343 553 362 530 388 522C397 520 415 520 423 522C444 529 459 547 462 568C463 581 461 594 453 614C450 622 450 624 450 632C450 643 451 647 457 653C473 667 497 655 509 626C519 601 518 559 507 526C490 475 455 446 410 446C381 446 359 456 335 479C318 497 308 512 293 542C274 579 256 635 249 676C243 714 244 737 251 774C254 790 263 814 273 833C303 893 358 943 413 960C422 963 426 967 426 976C426 990 414 995 394 988ZM222 942C211 938 174 889 157 857C139 819 127 782 124 743C122 727 123 684 125 670C134 611 154 547 184 487C226 405 271 352 326 326C366 306 413 301 456 312C511 325 556 362 587 417C596 432 597 435 604 450C613 471 625 513 629 536C634 564 636 598 634 618C630 664 613 709 588 744C580 754 560 775 551 782C531 796 510 803 485 803C457 803 434 793 414 772C394 752 385 731 391 722C394 717 401 714 407 714C414 715 417 718 423 729C427 737 429 740 437 748C451 762 461 767 479 769C489 770 500 769 511 765C549 751 584 699 597 638C605 601 601 552 588 505C570 442 538 393 497 367C479 355 464 349 443 344C426 341 396 340 380 344C343 352 314 368 286 397C242 443 200 520 176 601C168 625 166 637 159 676C155 698 156 729 160 755C169 815 194 866 235 911C244 920 246 925 244 932C243 937 239 941 233 943C228 944 228 944 222 942ZM535 873C529 870 526 865 526 859C526 849 532 843 544 840C609 828 670 756 687 671C692 651 692 641 692 616C692 589 690 571 685 542C668 459 638 389 592 333C553 284 510 255 457 242C441 237 428 236 408 236C368 236 333 246 294 269C247 297 197 352 164 412C160 418 157 424 156 425C152 431 135 467 126 486C104 539 84 606 77 650C75 668 74 670 72 672C70 676 63 679 59 679C51 679 44 673 42 665C42 661 45 639 49 620C68 536 91 472 126 409C161 344 206 290 253 255C312 212 378 193 441 203C472 207 504 218 530 233C564 253 590 275 619 311C637 333 659 369 673 398C710 475 732 576 726 644C720 707 696 763 655 811C635 833 606 855 582 864C572 868 564 871 554 873C543 876 540 876 535 873ZM768 507C762 504 761 501 759 487C756 469 752 449 746 432C718 343 642 239 570 191C541 172 526 164 496 154C440 135 376 134 318 153C249 176 184 226 128 302C87 356 57 415 44 465C40 482 36 486 25 486C18 485 15 483 12 478C9 473 9 468 13 454C26 401 54 345 92 291C165 189 255 126 353 109C359 108 374 106 386 105C407 104 410 104 429 105C463 108 483 112 518 125C539 132 551 138 581 157C628 186 686 247 724 308C761 367 781 415 790 469C794 493 794 498 788 504C782 509 775 510 768 507ZM59 242C50 237 49 228 55 217C59 210 74 188 84 175C114 137 157 97 194 73C213 62 217 59 231 52C256 40 276 32 298 25C320 19 337 16 366 12C379 10 432 10 446 12C470 15 477 16 497 22C525 29 547 37 573 50C639 84 696 136 742 206C754 225 755 228 752 236C749 243 737 247 730 244C726 242 723 238 716 227C668 155 608 103 538 72C514 61 493 55 463 50C442 46 428 45 404 45C333 45 267 66 204 109C160 139 121 179 91 224C82 238 79 242 76 243C70 246 64 246 59 242Z"/></svg>