<svg xmlns="http://www.w3.org/2000/svg" viewBox="-283 -140 1280 1280"><path fill="#a68955" fill-rule="evenodd" d="M50 989C32 984 20 973 13 955L10 948L10 636C10 396 10 322 11 318C15 297 35 277 56 273C59 272 92 272 144 272C209 272 227 272 228 271C228 270 228 247 228 220L228 172L185 171L141 170L137 168C135 166 132 163 131 161L128 156L128 93C128 49 128 28 129 25C130 23 132 19 134 17C140 9 122 10 359 10C566 10 571 10 575 12C580 14 583 19 585 23C587 27 587 35 587 91C587 151 587 155 585 159C583 164 580 167 574 169C571 171 567 171 529 171C498 171 487 171 486 172C486 173 485 269 486 271C486 272 504 272 571 272L655 272L663 275C684 282 696 295 702 315C704 322 704 324 704 633C704 972 704 948 698 961C694 969 684 980 674 984C660 992 688 991 356 991C65 991 57 991 50 989ZM663 967C671 963 676 958 680 950L682 944L683 636C683 315 683 321 679 313C676 307 669 300 662 297L656 294L358 294L60 294L53 297C45 301 38 307 34 315L32 320L31 632L31 943L33 949C37 958 46 967 57 970C61 971 125 971 359 971L657 970L663 967ZM143 702C136 698 137 707 137 586C137 478 137 476 139 473C143 467 127 467 359 467C561 467 570 467 572 469C578 473 578 464 578 585C578 688 578 696 576 699C573 704 585 704 357 704C151 704 146 704 143 702ZM558 586L558 488L358 488L158 488L158 584C158 637 158 681 158 682C159 683 199 683 358 683L558 682L558 586ZM464 255C465 236 464 173 463 172C463 171 252 171 250 172C249 173 249 269 250 271C251 272 273 272 357 272L464 272L464 255ZM566 90L566 32L359 31C245 31 151 31 151 32C150 33 150 148 151 149C151 150 239 150 358 150L566 150L566 90Z"/></svg>